<?xml version="1.0" encoding="utf-8"?>
<!-- Generator: Adobe Illustrator 23.0.4, SVG Export Plug-In . SVG Version: 6.00 Build 0)  -->
<svg version="1.1" id="Calque_1" xmlns="http://www.w3.org/2000/svg" xmlns:xlink="http://www.w3.org/1999/xlink" x="0px" y="0px"
	 viewBox="0 0 27 25" style="enable-background:new 0 0 27 25;" xml:space="preserve">
<style type="text/css">
	.st0{fill:#FFFFFF;}
</style>
<g>
	<path class="st0" d="M16.9,8.2c0,0,0.1,0,0.1,0c0.5,0,1.1-0.2,1.4-0.7c0.3-0.4,0.5-0.9,0.5-1.4c0-0.5-0.3-1-0.7-1.3l-4.9-4.3
		C13,0.2,12.5,0.1,12,0.1c-0.5,0-1,0.3-1.3,0.7c-0.4,0.5-0.5,1.1-0.4,1.6L16.9,8.2z"/>
	<path class="st0" d="M2.8,11c-0.6,0-1.2,0.2-1.6,0.6v0C0.9,12,0.8,12.5,0.8,13c0,0.5,0.3,1,0.7,1.3l4.9,4.3
		c0.4,0.3,0.8,0.5,1.3,0.5c0,0,0.1,0,0.1,0c0.5,0,1-0.3,1.3-0.7C9.4,18,9.5,17.5,9.5,17c0-0.1,0-0.2,0-0.3L2.8,11z"/>
	<path class="st0" d="M26.1,21.4L14.3,11.1l2-2.3L9.8,3l-6.4,7.4l6.6,5.7l1.8-2l11.8,10.3c0.4,0.3,0.8,0.5,1.3,0.5
		c0.6,0,1.1-0.2,1.5-0.7C27.1,23.4,27,22.1,26.1,21.4z"/>
</g>
</svg>
