<?xml version="1.0" encoding="utf-8"?>
<!-- Generator: Adobe Illustrator 23.0.4, SVG Export Plug-In . SVG Version: 6.00 Build 0)  -->
<svg version="1.1" id="Calque_1" xmlns="http://www.w3.org/2000/svg" xmlns:xlink="http://www.w3.org/1999/xlink" x="0px" y="0px"
	 viewBox="0 0 30 30" style="enable-background:new 0 0 30 30;" xml:space="preserve">
<style type="text/css">
	.st0{filter:url(#Adobe_OpacityMaskFilter);}
	.st1{fill-rule:evenodd;clip-rule:evenodd;fill:#FFFFFF;}
	.st2{mask:url(#loupe-b_2_);fill-rule:evenodd;clip-rule:evenodd;fill:#DEDFE1;}
</style>
<defs>
	<filter id="Adobe_OpacityMaskFilter" filterUnits="userSpaceOnUse" x="-5" y="-5" width="41" height="41">
		<feColorMatrix  type="matrix" values="1 0 0 0 0  0 1 0 0 0  0 0 1 0 0  0 0 0 1 0"/>
	</filter>
</defs>
<mask maskUnits="userSpaceOnUse" x="-5" y="-5" width="41" height="41" id="loupe-b_2_">
	<g class="st0">
		<path id="loupe-a_2_" class="st1" d="M21.5,18.9h-1.3l-0.5-0.5c1.7-1.9,2.7-4.5,2.7-7.2c0-6.1-5-11.1-11.1-11.1S0.1,5.1,0.1,11.2
			s5,11.1,11.1,11.1c2.8,0,5.3-1,7.2-2.7l0.5,0.5v1.3l8.5,8.5l2.5-2.5L21.5,18.9L21.5,18.9z M11.2,18.9c-4.3,0-7.7-3.4-7.7-7.7
			S7,3.5,11.2,3.5s7.7,3.4,7.7,7.7S15.5,18.9,11.2,18.9L11.2,18.9z"/>
	</g>
</mask>
<rect x="-5" y="-5" class="st2" width="41" height="41"/>
</svg>
