<svg xmlns="http://www.w3.org/2000/svg" width="36" height="36" viewBox="0 0 36 36">
  <path fill="#545A66" d="M31.7297114 15.1622402C31.4015969 14.5310834 30.8238566 14.0597642 30.1315736 13.8584832 29.4392906 13.6572021 28.6931608 13.7436066 28.0676388 14.0974939L27.3206738 14.5203152C27.2206012 14.1431409 27.031054 13.7945362 26.7675058 13.5029593 26.4111362 13.1108884 25.9406597 12.8356797 25.4197076 12.7145547L25.6442361 12.4942199C26.6792526 11.5217153 26.7569844 9.92416499 25.8210993 8.85931145 25.3377957 8.33034601 24.6539411 8.01990107 23.9302247 8.00092362 23.2065083 7.98194618 22.5067349 8.25610933 21.9953342 8.75899142L20.7409849 9.9929893C20.4596109 8.82847513 19.4004385 8.00577385 18.1808581 8.00443711L18.1770951 8.00443711C17.4802905 8.00311246 16.8118699 8.27523719 16.3206582 8.76022234L12.0176132 12.9822799 12.0100871 12.9896654 11.5296713 13.461108C11.4415066 12.6993341 11.0786961 11.9935966 10.5067495 11.4713249 9.73024666 10.7840921 8.54057804 10.816604 7.80425407 11.5451801L3.27542616 15.994958C-.865692603 19.9405648-1.11158987 26.3847482 2.71724075 30.6232181 3.49171449 31.4551244 4.39766542 32.1591992 5.40029376 32.7083975 5.60788856 32.925655 5.83304425 33.1435279 6.076388 33.3570926 9.50932194 36.3542686 14.5140972 36.8527426 18.4906824 34.5935524L28.9218506 28.6851336C30.1753247 28.0072384 30.6708615 26.4865291 30.050765 25.2207077 29.808466 24.7495052 29.4244397 24.3627685 28.9507007 24.1128792L30.2847011 23.3577094C31.5426241 22.6838159 32.0437183 21.1621142 31.4255317 19.8932834L31.4255317 19.8932834C31.184916 19.4245661 30.8032938 19.0397587 30.3323664 18.7909941L30.603933 18.637129C31.8605849 17.9564708 32.3551015 16.4300692 31.7297114 15.1622402zM3.64420483 29.7941931C.265334805 26.0415679.492168388 20.3446082 4.15911519 16.8621415L8.69045181 12.4160564C8.94459755 12.1501182 9.36770552 12.1294395 9.64752028 12.3692815 10.0526079 12.7409448 10.2868197 13.2579072 10.2966303 13.802025 10.3064408 14.3461428 10.0910117 14.8709123 9.69957577 15.2564057L9.6964399 15.2564057 5.43792424 19.435381C5.19303431 19.6758668 5.19317471 20.0656337 5.43823784 20.3059496 5.68330096 20.5462654 6.08048639 20.5461277 6.32537632 20.3056418L10.5763659 16.1334366 10.5763659 16.1334366 10.5763659 16.1334366 10.5763659 16.1334366 10.5763659 16.1334366 10.5763659 16.1334366 10.5763659 16.1334366 10.5763659 16.1334366 17.1993299 9.63417595C17.4563708 9.38040192 17.8062067 9.23811679 18.1708233 9.23905045L18.1708233 9.23905045C18.7299788 9.23786757 19.2345789 9.56796394 19.4485556 10.0749099 19.6625322 10.5818559 19.5435743 11.1654095 19.1473342 11.5525657L12.0621426 18.5097287C11.8991044 18.6642551 11.8337177 18.8930853 11.8911138 19.1082684 11.94851 19.3234514 12.1197569 19.4914997 12.3390356 19.5478238 12.5583143 19.604148 12.7914999 19.5399825 12.9489675 19.3799896L20.0429396 12.4191337 22.8852949 9.62986773C23.1534075 9.36562776 23.5206997 9.22158937 23.9005466 9.23172357 24.2803936 9.24185777 24.6391679 9.40526739 24.8922537 9.68341277 25.3715613 10.2647396 25.3141829 11.1101446 24.7605471 11.6239591L22.9517755 13.3989465 22.9517755 13.4026393 14.9007349 21.2959174C14.7376967 21.4504438 14.67231 21.679274 14.7297061 21.8944571 14.7871023 22.1096401 14.9583492 22.2776884 15.1776279 22.3340125 15.3969066 22.3903367 15.6300923 22.3261712 15.7875598 22.1661783L23.8323286 14.2716692C24.0936727 13.9995223 24.4641152 13.8544733 24.8445885 13.8753128 25.224183 13.8839511 25.5830751 14.0468942 25.8355244 14.3252142 26.1072838 14.6355508 26.2168753 15.0520871 26.1321779 15.4527375L26.1321779 15.4527375C26.12062 15.5152246 26.1049071 15.5769024 26.0851398 15.6373756 26.0763594 15.6638404 26.067579 15.6896897 26.0575442 15.715539 26.0399833 15.7610831 26.021168 15.8053962 25.9998441 15.8490939 25.9781742 15.8912985 25.9543102 15.9323833 25.9283462 15.972186 25.9107853 16.0011126 25.8944788 16.0300392 25.8750364 16.0577349 25.8240158 16.1293896 25.7669513 16.1967114 25.7044449 16.2589905L23.0314266 18.8919296 23.0276636 18.8956223 17.7405816 24.0821061C17.5775434 24.2366325 17.5121567 24.4654628 17.5695528 24.6806458 17.626949 24.8958288 17.7981958 25.0638771 18.0174746 25.1202013 18.2367533 25.1765254 18.4699389 25.1123599 18.6274065 24.952367L23.9031994 19.7744996C23.9031994 19.7744996 23.9107254 19.7708068 23.9138613 19.7677295 24.3544699 19.2986069 25.0793627 19.2183731 25.6153861 19.5793987 25.6454904 19.5978625 25.6781035 19.6114026 25.7063264 19.6323283 25.7345492 19.6532539 25.765908 19.6864888 25.7966395 19.7129536 25.8385001 19.7465136 25.8784882 19.7822621 25.9164299 19.8200437 25.9191517 19.8240859 25.9220824 19.8279889 25.9252103 19.8317374 26.0353608 19.9640924 26.1203385 20.1148208 26.1760802 20.2767152 26.21115 20.3908 26.230348 20.5090123 26.2331531 20.628143 26.2331531 20.6511202 26.2331531 20.6738922 26.2331531 20.6964591 26.2292577 20.9387217 26.1669287 21.1766319 26.0512724 21.3906983 26.0374746 21.4165477 26.0230496 21.442397 26.0073702 21.4682463 25.9487865 21.565143 25.8791387 21.655171 25.7997754 21.736587 25.7928765 21.7439725 25.7878591 21.752589 25.780333 21.7599745L17.2633017 30.1179252C17.0751493 30.3025633 16.8869969 30.4718148 16.6888097 30.6361427 14.0193278 32.8527864 10.3178861 33.4350646 7.07610434 32.1483286 6.84781278 32.0572405 6.62182086 31.9569205 6.39812858 31.8473686 5.35886636 31.3356743 4.42514973 30.639546 3.64420483 29.7941931L3.64420483 29.7941931zM28.2921673 27.6191564L17.8622534 33.5275751C15.2667971 35.0030718 12.109326 35.1734445 9.36466453 33.9860931 10.1453553 34.0784034 10.9342466 34.0827398 11.7159422 33.9990177 11.7786596 33.9928631 11.8369869 33.9799385 11.89845 33.9731684 12.2120373 33.9356253 12.5180985 33.8876194 12.8247869 33.8236115 12.9332881 33.801455 13.0392806 33.7712974 13.1471546 33.7454481 13.4049234 33.6839021 13.6601835 33.6149705 13.9129349 33.5337297 14.0333524 33.4955712 14.1512612 33.452489 14.2704244 33.4106377 14.5081236 33.3250887 14.7420597 33.2321542 14.9734871 33.1299878 15.0932775 33.0770582 15.2124407 33.0235132 15.3309767 32.9656599 15.5580139 32.8554925 15.7800337 32.7348623 16.000172 32.6080775 16.1124362 32.5465315 16.2259548 32.4812927 16.3363376 32.4117456 16.5627476 32.2701898 16.7810044 32.1157093 16.9973796 31.9556896 17.092083 31.886758 17.1892951 31.8227502 17.2821169 31.7501258 17.5534745 31.5359457 17.8156334 31.3069944 18.0685939 31.0632722 18.0968167 31.0368074 18.1275483 31.0152663 18.155144 30.988186L20.2166669 28.9645526 20.2235659 28.9645526C20.3336595 28.9645478 20.4418121 28.9361043 20.5371532 28.8820809L27.0095952 25.2145531 27.0164942 25.2090139C27.3458529 25.0265541 27.7369506 24.9842973 28.0988727 25.0920667 28.4607948 25.199836 28.7620153 25.4482439 28.9325126 25.7795456 29.2416177 26.4624403 28.9632354 27.2637581 28.2934217 27.6191564L28.2921673 27.6191564zM29.659408 22.2892703L26.3792847 24.1479604C26.3755217 24.1479604 26.3736402 24.154115 26.3698771 24.1559614L23.4077314 25.836168 26.6753112 22.6296199C26.7866683 22.518173 26.8880192 22.3975057 26.9782365 22.2689601 27.0077137 22.2283398 27.0334279 22.1877194 27.0603964 22.1458681 27.1140458 22.0621612 27.1630371 21.975665 27.2071552 21.8867593 27.2353781 21.8307524 27.2654825 21.7759765 27.2893151 21.7187387 27.3675947 21.523837 27.4241604 21.3211977 27.4580251 21.1143567 27.4680599 21.0528106 27.4780947 20.9955728 27.4837392 20.9358732 27.4918925 20.854017 27.4956556 20.7727762 27.4956556 20.6896891 27.4956556 20.628143 27.4912653 20.566597 27.4868751 20.505051 27.4868751 20.4699697 27.4868751 20.435504 27.4824849 20.4010382L28.3831077 19.8902061 28.3831077 19.8902061C28.7114006 19.7043894 29.1029968 19.6588617 29.4664474 19.764255 29.8298981 19.8696483 30.1333812 20.1167349 30.306025 20.4478132 30.6136807 21.1328429 30.3326071 21.9348494 29.6606623 22.2892703L29.659408 22.2892703zM29.9729953 17.5686899L27.755933 18.8260753 27.755933 18.8260753 27.0290376 19.2378182C26.9741169 19.1542146 26.9142224 19.0738602 26.8496657 18.9971733 26.7674472 18.9095422 26.6794534 18.8273039 26.5862524 18.7509892 26.5762176 18.7429882 26.5680643 18.7325253 26.5580295 18.7245244 26.5053468 18.6820576 26.4476468 18.6482073 26.3918282 18.6100488 26.3360097 18.5718902 26.2889716 18.5331162 26.2337802 18.5004968 26.0069983 18.368339 25.7610507 18.2708013 25.5043762 18.2112305L26.5981687 17.1384832C26.7033583 17.0307275 26.799818 16.9150801 26.886669 16.7925945 26.9205364 16.746435 26.9493865 16.7002755 26.9819996 16.652885 27.0277833 16.5814916 27.0679225 16.5082519 27.1074345 16.4337812 27.1787055 16.2976076 27.2380817 16.1557487 27.2849249 16.009729 27.2911966 15.9912652 27.2993499 15.9740323 27.3049945 15.9555685L28.6973221 15.1665485C29.0251985 14.9809569 29.4163719 14.9356941 29.7792448 15.0413589 30.1421176 15.1470238 30.444822 15.3943366 30.6164765 15.7253864 30.9236343 16.4100607 30.6446826 17.2114835 29.9748768 17.5686899L29.9729953 17.5686899zM31.1719825 6.82801749C31.4013618 7.0573275 31.7731856 7.0573275 32.0025649 6.82801749L35.8206594 3.00992299C35.9733577 2.86244206 36.0345976 2.64404505 35.9808415 2.43867302 35.9270854 2.23330099 35.766699 2.07291461 35.561327 2.01915851 35.355955 1.96540242 35.1375579 2.02664232 34.990077 2.17934059L31.1719825 5.99743508C30.9426725 6.22681437 30.9426725 6.5986382 31.1719825 6.82801749zM34.9116152 7.09104168L31.3559093 8.88437005C31.1331601 8.99233602 30.9970933 9.19296719 31 9.40909066 31.0030009 9.62521414 31.1445153 9.82316467 31.3701565 9.92680049 31.5957978 10.0304363 31.8704181 10.0236142 32.0883848 9.90895832L35.6440907 8.11562995C35.8668399 8.00766398 36.0029067 7.80703281 36 7.59090934 35.9969991 7.37478586 35.8554847 7.17683533 35.6298435 7.07319951 35.4042022 6.96956369 35.1295819 6.97638578 34.9116152 7.09104168L34.9116152 7.09104168zM28.3320567 6.9340347C28.4744324 7.00818981 28.6392627 7.02035196 28.7902502 6.96784291 28.9412376 6.91533386 29.0660003 6.80245972 29.137064 6.65407658L30.9366333 2.90463744C31.0847206 2.59574936 30.9644036 2.22028436 30.6678976 2.06601288 30.3713917 1.9117414 30.0109776 2.03708293 29.8628903 2.345971L28.063321 6.09541015C27.9921385 6.24373149 27.9804639 6.41544512 28.030868 6.57273785 28.0812722 6.73003057 28.1896217 6.86000332 28.3320567 6.9340347zM13.84935 4.66953054C13.9831796 4.94775537 14.3333478 5.07481666 14.6354932 4.95478883 14.9376386 4.83476101 15.0797424 4.51214378 14.9545226 4.23049868L13.15065.330469459C13.0168204.0522446305 12.6666522-.0748166598 12.3645068.0452111656 12.0623614.165238991 11.9202576.487856225 12.0454774.76950132L13.84935 4.66953054zM16.5 6C16.7761424 6 17 5.72017797 17 5.375L17 1.625C17 1.27982203 16.7761424 1 16.5 1 16.2238576 1 16 1.27982203 16 1.625L16 5.375C16 5.72017797 16.2238576 6 16.5 6zM11.8125774 6.73193264C12.0426707 7.03999959 12.462283 7.08988315 12.7498077 6.84335069 13.0373324 6.59681823 13.0838896 6.14722656 12.8537963 5.83915959L10.1874226 2.26806737C9.95732926 1.96000041 9.53771696 1.91011685 9.2501923 2.15664931 8.96266764 2.40318178 8.91611037 2.85277344 9.14620371 3.16084042L11.8125774 6.73193264z"/>
</svg>
